<svg width="22" height="26" viewBox="0 0 22 26" fill="none" xmlns="http://www.w3.org/2000/svg">
<path d="M0 0L7 0.46594L4.5 6.05722L0 0Z" fill="#6E7D60"/>
<path d="M3.85077 11.1823L8 0.931641" stroke="#6E7D60" stroke-width="1.33" stroke-linecap="round"/>
<path d="M9.86651 5.98781C9.86651 7.08272 10.8335 8.04891 12.1269 8.04891C13.4202 8.04891 14.3872 7.08272 14.3872 5.98781C14.3872 4.89291 13.4202 3.92672 12.1269 3.92672C10.8335 3.92672 9.86651 4.89291 9.86651 5.98781Z" stroke="#6E7D60" stroke-width="1.33"/>
<path d="M19.0746 11.0993C19.7986 11.6072 20.4593 12.205 20.9688 12.7112C21.5593 13.2977 21.4575 14.2466 20.8001 14.7571C20.2271 15.2021 19.4159 15.1656 18.8851 14.671L18.0461 13.8892C17.7598 13.6224 17.4212 13.4179 17.0517 13.2888L15.6106 12.7852C15.2233 12.6499 14.8449 13.0084 14.9592 13.4024L17.8074 23.2228C18.1025 24.2403 17.5108 25.3032 16.4905 25.5885C15.4892 25.8684 14.4485 25.2941 14.1515 24.2978L12.9436 20.2456C12.8998 20.0986 12.7311 20.0301 12.5973 20.105L12.0957 20.3854C11.4085 20.7697 10.8837 21.3898 10.6186 22.1312L10.1287 23.5006C9.81481 24.3782 8.86497 24.8524 7.97488 24.5759C7.04289 24.2864 6.53139 23.287 6.84168 22.3617L7.58187 20.1544C7.91679 19.1557 8.6307 18.3285 9.56974 17.8512L11.7567 16.7396C11.9713 16.6305 12.0779 16.384 12.0102 16.1529L11.1675 13.2733C11.0942 13.0229 10.8189 12.8924 10.5787 12.9942L8.26351 13.9748C7.46388 14.3136 6.55816 14.2975 5.77099 13.9308L4.3813 13.2832C3.79046 13.008 3.49294 12.3393 3.68401 11.7161C3.90132 11.0073 4.66421 10.6212 5.36406 10.8657L6.22689 11.1672C6.72987 11.343 7.27974 11.329 7.77313 11.1279L10.412 10.052C12.0138 9.39897 13.7703 9.15468 15.4417 9.6002C16.6848 9.93155 18.1107 10.423 19.0746 11.0993Z" stroke="#6E7D60" stroke-width="1.33"/>
</svg>
